<svg height="85" viewBox="0 0 281 85" width="281" xmlns="http://www.w3.org/2000/svg"><g fill="none" fill-rule="evenodd"><g fill="#ff5240"><path d="m0 61.7031v-56.203c0-3.2 2.3-5.5 5.5-5.5h32.502c2.801 0 4.901 2.099 4.901 4.801 0 2.699-2.1 4.699-4.901 4.699h-27.401v19.701h21.901c2.8 0 4.9 2.101 4.9 4.801s-2.1 4.801-4.9 4.801h-21.901v22.9c0 3.101-2.2 5.4-5.3 5.4-3.101 0-5.301-2.299-5.301-5.4"/><path d="m54.5 36.7022h26.702c-.201-7.101-5.201-12.001-12.601-12.001-7.101 0-12.501 4.801-14.101 12.001m37.202 1.899v.5c0 3.602-2.3 5.801-6 5.801h-31.402c1.4 7.901 7.301 12.901 16.001 12.901 4.2 0 8.2-1.299 11.501-3.8.9-.6 1.8-1 2.7-1 2.5 0 4.4 1.9 4.4 4.4 0 1.8-.7 3-2.6 4.401-4.7 3.5-10.2 5.299-16.301 5.299-15.201 0-26.401-10.9-26.401-25.601 0-14.5 11-25.701 25.301-25.701 13.101 0 22.801 9.6 22.801 22.8"/><path d="m155.7969 41.502c0 9.102 6.501 15.901 15.201 15.901s15.301-6.9 15.301-15.901c0-9.2-6.601-16-15.2-16.101-8.801.101-15.302 6.901-15.302 16.101m41.303-.1c0 14.301-11.501 25.702-26.102 25.702-14.501-.1-25.901-11.401-25.901-25.702 0-14.4 11.4-25.601 25.901-25.601 14.601 0 26.102 11.301 26.102 25.601"/><path d="m280.3018 20.9014c0 .8-.2 1.601-.5 2.399l-17.802 40.604c-.899 2-2.6 3.199-4.8 3.199-2 0-3.8-1.199-4.701-3.099l-12.599-30.602-12.702 30.602c-1 1.9-2.7 3.099-4.8 3.099s-3.8-1.199-4.7-3.199l-17.801-40.604c-.3-.798-.5-1.599-.5-2.399 0-2.8 2.3-5.101 5.1-5.101 2.1 0 3.901 1.201 4.701 3.1l13.6 31.002 12.001-30.301c1-2.4 2.8-3.801 5-3.801 2.3 0 4.101 1.401 5.001 3.801l12.1 30.301 13.601-31.002c.8-1.899 2.6-3.1 4.6-3.1 2.801 0 5.201 2.301 5.201 5.101"/></g><path d="m171.0703 84.292c-5.877 0-10.967-2.286-13.675-4.242-1.567-1.131-1.92-3.32-.788-4.886 1.128-1.563 3.308-1.92 4.874-.797.407.286 9.428 6.495 18.414.009 1.568-1.134 3.756-.78 4.886.788 1.132 1.566.779 3.755-.788 4.886-4.326 3.125-8.817 4.242-12.923 4.242" fill="#ff523f"/><path d="m101.231 62.4248v-57.533c0-2.687 2.2-4.679 5.3-4.679 3 0 5.2 1.992 5.2 4.679v57.533c0 2.687-2.2 4.679-5.2 4.679s-5.3-1.992-5.3-4.679" fill="#ff5240"/><path d="m124.6299 62.4248v-57.533c0-2.687 2.2-4.679 5.3-4.679 3 0 5.2 1.992 5.2 4.679v57.533c0 2.687-2.2 4.679-5.2 4.679s-5.3-1.992-5.3-4.679" fill="#ff5240"/></g></svg>